<svg width="140" height="110" viewBox="0 0 140 110" fill="none" xmlns="http://www.w3.org/2000/svg">
<g clip-path="url(#clip0_916_821)">
<mask id="mask0_916_821" style="mask-type:luminance" maskUnits="userSpaceOnUse" x="100" y="92" width="16" height="16">
<path d="M100.014 92.4573H115.769V107.727H100.014V92.4573Z" fill="white"/>
</mask>
<g mask="url(#mask0_916_821)">
<path d="M102.392 92.6018C102.392 92.6018 105.057 98.9019 109.581 98.714C114.106 98.5097 115.866 96.8873 115.866 96.8873L114.482 107.372C114.482 107.372 101.01 107.747 100.087 95.5558C99.9168 93.234 102.392 92.6018 102.392 92.6018Z" fill="#FF3CC7"/>
</g>
<path d="M97.3385 70.0113C97.3385 70.4512 97.3281 70.8911 97.3057 71.3295C97.2848 71.7694 97.252 72.2078 97.2088 72.6447C97.1655 73.0831 97.1119 73.52 97.0477 73.9554C96.9821 74.3893 96.9076 74.8232 96.8226 75.2542C96.7361 75.6851 96.6392 76.1145 96.5333 76.541C96.4259 76.9675 96.3081 77.3925 96.1814 77.813C96.0532 78.2335 95.916 78.651 95.7669 79.0655C95.6192 79.48 95.4612 79.8901 95.2927 80.2957C95.1242 80.7028 94.9452 81.1054 94.7574 81.502C94.5695 81.9002 94.3726 82.2923 94.1654 82.68C93.9566 83.0692 93.7404 83.4509 93.5137 83.8282C93.2886 84.2055 93.053 84.5768 92.8084 84.9436C92.5639 85.3089 92.3104 85.6683 92.0494 86.0217C91.787 86.3751 91.5171 86.721 91.2368 87.061C90.9579 87.401 90.6716 87.735 90.3764 88.0601C90.0812 88.3866 89.777 88.7042 89.4668 89.0159C89.1552 89.3275 88.836 89.6302 88.511 89.9255C88.1844 90.2207 87.8519 90.5085 87.5119 90.7873C87.1719 91.0662 86.8245 91.3361 86.4726 91.5985C86.1192 91.861 85.7598 92.1145 85.393 92.359C85.0277 92.6021 84.6564 92.8377 84.2791 93.0643C83.9019 93.2895 83.5187 93.5072 83.131 93.7145C82.7433 93.9217 82.3511 94.12 81.953 94.3079C81.5548 94.4958 81.1537 94.6733 80.7466 94.8418C80.341 95.0103 79.9295 95.1683 79.5164 95.3174C79.1019 95.465 78.6844 95.6022 78.2639 95.7305C77.8419 95.8587 77.4184 95.975 76.9919 96.0824C76.5655 96.1897 76.136 96.2852 75.7051 96.3717C75.2741 96.4567 74.8402 96.5327 74.4048 96.5968C73.9694 96.6609 73.534 96.7146 73.0956 96.7579C72.6587 96.8011 72.2188 96.8339 71.7804 96.8548C71.3405 96.8772 70.9006 96.8876 70.4608 96.8876C70.0209 96.8876 69.5825 96.8772 69.1426 96.8548C68.7027 96.8339 68.2643 96.8011 67.8274 96.7579C67.389 96.7146 66.9536 96.6609 66.5182 96.5968C66.0828 96.5327 65.6488 96.4567 65.2179 96.3717C64.787 96.2852 64.3575 96.1897 63.9311 96.0824C63.5046 95.975 63.0811 95.8587 62.6591 95.7305C62.2386 95.6022 61.8211 95.465 61.4066 95.3174C60.992 95.1683 60.582 95.0103 60.1764 94.8418C59.7693 94.6733 59.3682 94.4958 58.97 94.3079C58.5719 94.12 58.1797 93.9217 57.792 93.7145C57.4043 93.5072 57.0211 93.2895 56.6439 93.0643C56.2666 92.8377 55.8953 92.6021 55.53 92.359C55.1632 92.1145 54.8038 91.861 54.4504 91.5985C54.097 91.3361 53.7511 91.0662 53.4111 90.7873C53.0711 90.5085 52.7386 90.2207 52.412 89.9255C52.0855 89.6302 51.7678 89.3275 51.4562 89.0159C51.146 88.7042 50.8418 88.3866 50.5466 88.0601C50.2514 87.735 49.9651 87.401 49.6847 87.061C49.4059 86.721 49.136 86.3751 48.8735 86.0217C48.6111 85.6683 48.3591 85.3089 48.1146 84.9436C47.87 84.5768 47.6344 84.2055 47.4078 83.8282C47.1826 83.4509 46.9649 83.0692 46.7576 82.68C46.5503 82.2923 46.3535 81.9002 46.1656 81.502C45.9763 81.1054 45.7988 80.7028 45.6303 80.2957C45.4618 79.8901 45.3038 79.48 45.1561 79.0655C45.007 78.651 44.8698 78.2335 44.7416 77.813C44.6148 77.3925 44.497 76.9675 44.3897 76.541C44.2838 76.1145 44.1869 75.6851 44.1004 75.2542C44.0154 74.8232 43.9394 74.3893 43.8752 73.9554C43.8111 73.52 43.7574 73.0831 43.7142 72.6447C43.671 72.2078 43.6382 71.7694 43.6173 71.3295C43.5949 70.8911 43.5845 70.4512 43.5845 70.0113C43.5845 69.5714 43.5949 69.1315 43.6173 68.6917C43.6382 68.2533 43.671 67.8149 43.7142 67.3765C43.7574 66.9396 43.8111 66.5027 43.8752 66.0673C43.9394 65.6318 44.0154 65.1994 44.1004 64.767C44.1869 64.336 44.2838 63.9066 44.3897 63.4801C44.497 63.0537 44.6148 62.6302 44.7416 62.2097C44.8698 61.7877 45.007 61.3702 45.1561 60.9571C45.3038 60.5426 45.4618 60.1325 45.6303 59.7254C45.7988 59.3199 45.9763 58.9172 46.1656 58.5191C46.3535 58.1225 46.5503 57.7288 46.7576 57.3411C46.9649 56.9534 47.1826 56.5702 47.4078 56.1929C47.6344 55.8157 47.87 55.4444 48.1146 55.0791C48.3591 54.7137 48.6111 54.3544 48.8735 54.001C49.136 53.6476 49.4059 53.3001 49.6847 52.9601C49.9651 52.6202 50.2514 52.2876 50.5466 51.9611C50.8418 51.636 51.146 51.3169 51.4562 51.0068C51.7678 50.6951 52.0855 50.3924 52.412 50.0972C52.7386 49.8004 53.0711 49.5141 53.4111 49.2353C53.7511 48.9564 54.097 48.6851 54.4504 48.4226C54.8038 48.1617 55.1632 47.9082 55.53 47.6636C55.8953 47.4191 56.2666 47.1835 56.6439 46.9583C57.0211 46.7317 57.4043 46.5154 57.792 46.3082C58.1797 46.1009 58.5719 45.9026 58.97 45.7147C59.3682 45.5268 59.7693 45.3479 60.1764 45.1794C60.582 45.0124 60.992 44.8528 61.4066 44.7052C61.8211 44.5576 62.2386 44.4189 62.6591 44.2922C63.0811 44.1639 63.5046 44.0461 63.9311 43.9403C64.3575 43.8329 64.787 43.736 65.2179 43.651C65.6488 43.5645 66.0828 43.4899 66.5182 43.4243C66.9536 43.3602 67.389 43.3065 67.8274 43.2633C68.2643 43.22 68.7027 43.1887 69.1426 43.1663C69.5825 43.1455 70.0209 43.1335 70.4608 43.1335C70.9006 43.1335 71.3405 43.1455 71.7804 43.1663C72.2188 43.1887 72.6587 43.22 73.0956 43.2633C73.534 43.3065 73.9694 43.3602 74.4048 43.4243C74.8402 43.4899 75.2741 43.5645 75.7051 43.651C76.136 43.736 76.5655 43.8329 76.9919 43.9403C77.4184 44.0461 77.8419 44.1639 78.2639 44.2922C78.6844 44.4189 79.1019 44.5576 79.5164 44.7052C79.9295 44.8528 80.341 45.0124 80.7466 45.1794C81.1537 45.3479 81.5548 45.5268 81.953 45.7147C82.3511 45.9026 82.7433 46.1009 83.131 46.3082C83.5187 46.5154 83.9019 46.7317 84.2791 46.9583C84.6564 47.1835 85.0277 47.4191 85.393 47.6636C85.7598 47.9082 86.1192 48.1617 86.4726 48.4226C86.8245 48.6851 87.1719 48.9564 87.5119 49.2353C87.8519 49.5141 88.1844 49.8004 88.511 50.0972C88.836 50.3924 89.1552 50.6951 89.4668 51.0068C89.777 51.3169 90.0812 51.636 90.3764 51.9611C90.6716 52.2876 90.9579 52.6202 91.2368 52.9601C91.5171 53.3001 91.787 53.6476 92.0494 54.001C92.3104 54.3544 92.5639 54.7137 92.8084 55.0791C93.053 55.4444 93.2886 55.8157 93.5137 56.1929C93.7404 56.5702 93.9566 56.9534 94.1654 57.3411C94.3726 57.7288 94.5695 58.1225 94.7574 58.5191C94.9452 58.9172 95.1242 59.3199 95.2927 59.7254C95.4612 60.1325 95.6192 60.5426 95.7669 60.9571C95.916 61.3702 96.0532 61.7877 96.1814 62.2097C96.3081 62.6302 96.4259 63.0537 96.5333 63.4801C96.6392 63.9066 96.7361 64.336 96.8226 64.767C96.9076 65.1994 96.9821 65.6318 97.0477 66.0673C97.1119 66.5027 97.1655 66.9396 97.2088 67.3765C97.252 67.8149 97.2848 68.2533 97.3057 68.6917C97.3281 69.1315 97.3385 69.5714 97.3385 70.0113Z" fill="#FF3CC7"/>
<mask id="mask1_916_821" style="mask-type:luminance" maskUnits="userSpaceOnUse" x="31" y="30" width="79" height="80">
<path d="M31.3109 30.8911H109.939V109.051H31.3109V30.8911Z" fill="white"/>
</mask>
<g mask="url(#mask1_916_821)">
<path d="M70.4607 30.8911C48.8616 30.8911 31.3407 48.4105 31.3407 70.0111C31.3407 91.6118 48.8616 109.131 70.4607 109.131C92.0613 109.131 109.581 91.6118 109.581 70.0111C109.581 48.4105 92.0613 30.8911 70.4607 30.8911ZM70.4607 37.8398C76.3865 37.8398 81.1671 42.6383 81.1671 48.5462C81.1671 54.4556 76.3701 59.2526 70.4607 59.2526C64.5528 59.2526 59.7543 54.4556 59.7543 48.5462C59.7543 42.6383 64.5364 37.8398 70.4607 37.8398ZM77.4452 68.7645C77.4452 69.4982 76.8652 70.0797 76.13 70.0797C75.3964 70.0797 74.8163 69.4982 74.8163 68.7645C74.8163 68.0294 75.3964 67.4494 76.13 67.4494C76.8652 67.4494 77.4452 68.0294 77.4452 68.7645ZM71.7759 63.0788C71.7759 63.8125 71.1958 64.3925 70.4607 64.3925C69.7271 64.3925 69.147 63.8125 69.147 63.0788C69.147 62.3437 69.7271 61.7636 70.4607 61.7636C71.178 61.7636 71.7759 62.3616 71.7759 63.0788ZM66.0902 68.7645C66.0902 69.4982 65.5101 70.0797 64.775 70.0797C64.0414 70.0797 63.4598 69.4982 63.4598 68.7645C63.4598 68.0294 64.0414 67.4494 64.775 67.4494C65.5101 67.4494 66.0902 68.0294 66.0902 68.7645ZM39.4182 63.9825C39.4182 58.0746 44.2167 53.2761 50.1246 53.2761C56.0325 53.2761 60.8309 58.0746 60.8309 63.9825C60.8309 69.8918 56.0325 74.6888 50.1246 74.6888C44.2167 74.6888 39.4182 69.9082 39.4182 63.9825ZM57.5862 97.9297C51.6783 97.9297 46.8799 93.1312 46.8799 87.2233C46.8799 81.3155 51.6783 76.517 57.5862 76.517C63.512 76.517 68.2926 81.3155 68.2926 87.2233C68.2926 93.1312 63.4941 97.9297 57.5862 97.9297ZM67.4725 68.7645C67.4725 67.1079 68.8055 65.7763 70.4607 65.7763C72.1174 65.7763 73.449 67.1079 73.449 68.7645C73.449 70.4212 72.1174 71.7528 70.4607 71.7528C68.8055 71.7528 67.4725 70.4033 67.4725 68.7645ZM70.4607 75.7475C69.7271 75.7475 69.147 75.1675 69.147 74.4338C69.147 73.6987 69.7271 73.1187 70.4607 73.1187C71.1958 73.1187 71.7759 73.6987 71.7759 74.4338C71.7759 75.1675 71.178 75.7475 70.4607 75.7475ZM83.1309 97.9297C77.223 97.9297 72.4245 93.1312 72.4245 87.2233C72.4245 81.3155 77.223 76.517 83.1309 76.517C89.0567 76.517 93.8373 81.3155 93.8373 87.2233C93.8552 93.1312 89.0567 97.9297 83.1309 97.9297ZM90.7819 74.7067C84.8726 74.7067 80.0756 69.9082 80.0756 64.0004C80.0756 58.0925 84.8726 53.2761 90.7819 53.2761C96.7062 53.2761 101.488 58.0746 101.488 63.9825C101.488 69.8918 96.7062 74.7067 90.7819 74.7067Z" fill="#4C1A57"/>
</g>
<path d="M70.7172 106.024C50.8583 106.024 34.6884 89.8701 34.6884 69.9932C34.6884 50.1343 50.8419 33.9644 70.7172 33.9644C90.5762 33.9644 106.748 50.1179 106.748 69.9932C106.73 89.8701 90.5762 106.024 70.7172 106.024ZM70.7172 35.6896C51.7977 35.6896 36.3957 51.0916 36.3957 70.0111C36.3957 88.9307 51.7977 104.333 70.7172 104.333C89.6368 104.333 105.039 88.9307 105.039 70.0111C105.022 51.0916 89.6368 35.6896 70.7172 35.6896Z" fill="#00E5E8"/>
<path d="M4.10947 59.2421L7.37805 59.9042L8.71411 53.3372L11.9708 53.9993L10.6347 60.5663L15.7284 61.6041L14.8755 65.8091L0.00585938 62.7851L2.37379 51.1184L5.62447 51.7805L4.10947 59.2421Z" fill="white"/>
<path d="M4.66785 45.3451L6.37967 41.4084L20.295 47.4505L18.5832 51.3871L4.66785 45.3451Z" fill="white"/>
<path d="M9.63391 34.9898L12.1092 31.4827L21.73 38.2524L25.8933 32.3296L28.6787 34.292L22.0402 43.7219L9.63391 34.9898Z" fill="white"/>
<path d="M40.8165 24.2553L35.9316 17.8613L36.7666 25.4422L35.2456 26.5934L28.3327 23.8736L33.0507 30.1185L29.8835 32.5162L20.7339 20.4082L23.5551 18.2729L33.0865 22.0484L31.9651 11.9206L34.7804 9.79126L43.9599 21.8754L40.8165 24.2553Z" fill="white"/>
<path d="M57.0781 1.52173L55.5094 17.9541L51.4833 19.2424L40.6815 6.77054L45.1013 5.35694L52.044 13.5105L53.0341 2.81604L57.0781 1.52173Z" fill="white"/>
<path d="M62.7119 1.17201L66.9945 0.832031L68.1874 15.9581L63.9048 16.2981L62.7119 1.17201Z" fill="white"/>
<path d="M77.5072 16.7135C76.2904 16.5539 75.1273 16.2483 74.0179 15.795C72.9115 15.3416 72.0332 14.8168 71.3816 14.2203L73.1948 11.2679C73.8107 11.8017 74.5443 12.2624 75.3957 12.6516C76.2502 13.0378 77.1076 13.2884 77.9665 13.4032C79.6037 13.6179 80.4775 13.3182 80.5849 12.5025C80.6401 12.0731 80.4477 11.7241 80.0063 11.4528C79.5679 11.1829 78.8492 10.8653 77.8472 10.4984C76.7452 10.1048 75.8326 9.72006 75.1094 9.34131C74.3892 8.96405 73.7972 8.43171 73.332 7.74281C72.8697 7.05539 72.7072 6.18904 72.8429 5.14226C72.9652 4.22372 73.326 3.42894 73.9225 2.75644C74.5219 2.08543 75.348 1.59932 76.3978 1.30109C77.4505 1.00286 78.7016 0.949181 80.1495 1.14005C81.1396 1.27127 82.0999 1.50985 83.0304 1.85579C83.9608 2.20174 84.7616 2.64013 85.4341 3.16799L83.7044 6.1622C82.3758 5.19296 81.0382 4.61738 79.6902 4.43844C78.8462 4.3281 78.214 4.37283 77.7935 4.57563C77.3715 4.77842 77.1344 5.08113 77.0837 5.48224C77.0315 5.88485 77.2209 6.21588 77.6503 6.47832C78.0828 6.73778 78.7955 7.03899 79.7856 7.38493C80.898 7.78307 81.8136 8.17226 82.5293 8.55399C83.2481 8.93274 83.843 9.4606 84.3127 10.1406C84.781 10.8205 84.948 11.6839 84.8138 12.7292C84.6945 13.6328 84.3336 14.4157 83.7342 15.0792C83.1377 15.7428 82.3087 16.2274 81.247 16.5346C80.1853 16.8447 78.9387 16.9044 77.5072 16.7135Z" fill="white"/>
<path d="M97.1406 19.3508L91.2775 16.7443L88.9871 18.9512L84.9849 17.1678L97.2718 6.03198L101.137 7.74977L101.113 24.3432L97.0273 22.5299L97.1406 19.3508ZM97.2778 15.951L97.4687 10.7201L93.711 14.3645L97.2778 15.951Z" fill="white"/>
<path d="M109.973 26.911L108.219 25.3603L105.553 28.3843L102.332 25.5452L112.365 14.1648L117.572 18.7575C118.598 19.6641 119.339 20.6229 119.797 21.6324C120.257 22.6389 120.414 23.641 120.268 24.6386C120.12 25.6361 119.668 26.5651 118.914 27.424C118.189 28.2471 117.365 28.7929 116.439 29.0643C115.516 29.3386 114.543 29.3341 113.522 29.0523L112.824 34.7962L109.371 31.7543L109.973 26.911ZM115.663 24.555C116.131 24.0227 116.327 23.462 116.248 22.873C116.167 22.2855 115.797 21.701 115.138 21.1195L113.349 19.5389L110.414 22.873L112.204 24.4537C112.863 25.0337 113.488 25.3275 114.077 25.3364C114.664 25.3439 115.193 25.0829 115.663 24.555Z" fill="white"/>
<path d="M134.833 41.2949L121.825 49.1085L120.006 46.0844L123.483 36.1773L116.552 40.3406L114.387 36.732L127.396 28.9185L129.215 31.9485L125.732 41.8556L132.662 37.6923L134.833 41.2949Z" fill="white"/>
<path d="M128.21 61.532L126.778 55.2812L123.641 54.7801L122.662 50.5095L138.946 53.6469L139.894 57.7684L126.611 67.7113L125.609 63.3572L128.21 61.532ZM131.019 59.6055L135.313 56.6113L130.148 55.8001L131.019 59.6055Z" fill="white"/>
</g>
<defs>
<clipPath id="clip0_916_821">
<rect width="140" height="108.507" fill="white" transform="translate(0 0.746338)"/>
</clipPath>
</defs>
</svg>
