<svg width="40" height="31" viewBox="0 0 40 31" fill="none" xmlns="http://www.w3.org/2000/svg">
<g clip-path="url(#clip0_916_8529)">
<mask id="mask0_916_8529" style="mask-type:luminance" maskUnits="userSpaceOnUse" x="28" y="26" width="6" height="5">
<path d="M28.5735 26.2012H33.0747V30.5635H28.5735V26.2012Z" fill="white"/>
</mask>
<g mask="url(#mask0_916_8529)">
<path d="M29.2529 26.2422C29.2529 26.2422 30.0142 28.0421 31.3067 27.9884C32.5997 27.93 33.1024 27.4665 33.1024 27.4665L32.707 30.4618C32.707 30.4618 28.858 30.5692 28.5943 27.0861C28.5457 26.4228 29.2529 26.2422 29.2529 26.2422Z" fill="#FF3CC7"/>
</g>
<path d="M27.8092 19.7882C27.8092 19.9139 27.8062 20.0396 27.7998 20.1648C27.7939 20.2905 27.7845 20.4157 27.7721 20.5406C27.7598 20.6658 27.7444 20.7906 27.7261 20.915C27.7074 21.039 27.6861 21.163 27.6618 21.2861C27.6371 21.4092 27.6094 21.5319 27.5791 21.6537C27.5485 21.7756 27.5148 21.897 27.4786 22.0171C27.442 22.1373 27.4028 22.2565 27.3602 22.375C27.318 22.4934 27.2728 22.6106 27.2247 22.7264C27.1766 22.8427 27.1254 22.9578 27.0718 23.0711C27.0181 23.1848 26.9619 23.2969 26.9026 23.4076C26.843 23.5188 26.7812 23.6279 26.7165 23.7357C26.6521 23.8434 26.5848 23.9495 26.515 24.0543C26.4451 24.1587 26.3727 24.2614 26.2981 24.3623C26.2231 24.4633 26.146 24.5621 26.066 24.6592C25.9863 24.7564 25.9045 24.8518 25.8201 24.9447C25.7358 25.038 25.6489 25.1287 25.5603 25.2177C25.4712 25.3068 25.3801 25.3933 25.2872 25.4776C25.1939 25.562 25.0989 25.6442 25.0018 25.7238C24.9046 25.8035 24.8054 25.8806 24.7048 25.9556C24.6039 26.0306 24.5012 26.103 24.3964 26.1729C24.292 26.2423 24.186 26.3096 24.0782 26.3744C23.9704 26.4387 23.8609 26.5009 23.7502 26.5601C23.6394 26.6193 23.5273 26.676 23.4136 26.7297C23.2999 26.7833 23.1853 26.834 23.069 26.8822C22.9531 26.9303 22.8355 26.9755 22.7175 27.0181C22.5991 27.0602 22.4798 27.0994 22.3597 27.1361C22.2391 27.1727 22.1181 27.2059 21.9963 27.2366C21.8744 27.2673 21.7517 27.2946 21.6286 27.3193C21.5055 27.3435 21.3815 27.3653 21.2571 27.3836C21.1327 27.4019 21.0083 27.4172 20.8831 27.4296C20.7583 27.442 20.6326 27.4513 20.5074 27.4573C20.3817 27.4637 20.256 27.4667 20.1303 27.4667C20.0047 27.4667 19.8794 27.4637 19.7537 27.4573C19.6281 27.4513 19.5028 27.442 19.378 27.4296C19.2528 27.4172 19.1284 27.4019 19.004 27.3836C18.8796 27.3653 18.7556 27.3435 18.6325 27.3193C18.5094 27.2946 18.3867 27.2673 18.2648 27.2366C18.143 27.2059 18.022 27.1727 17.9014 27.1361C17.7813 27.0994 17.662 27.0602 17.5436 27.0181C17.4252 26.9755 17.308 26.9303 17.1921 26.8822C17.0758 26.834 16.9612 26.7833 16.8475 26.7297C16.7337 26.676 16.6217 26.6193 16.5109 26.5601C16.4002 26.5009 16.2907 26.4387 16.1829 26.3744C16.0751 26.3096 15.9691 26.2423 15.8647 26.1729C15.7599 26.103 15.6572 26.0306 15.5562 25.9556C15.4553 25.8806 15.3565 25.8035 15.2593 25.7238C15.1622 25.6442 15.0672 25.562 14.9739 25.4776C14.8806 25.3933 14.7899 25.3068 14.7008 25.2177C14.6122 25.1287 14.5253 25.038 14.441 24.9447C14.3566 24.8518 14.2748 24.7564 14.1947 24.6592C14.1151 24.5621 14.0379 24.4633 13.963 24.3623C13.888 24.2614 13.816 24.1587 13.7461 24.0543C13.6763 23.9495 13.609 23.8434 13.5442 23.7357C13.4799 23.6279 13.4177 23.5188 13.3585 23.4076C13.2992 23.2969 13.243 23.1848 13.1893 23.0711C13.1352 22.9578 13.0845 22.8427 13.0364 22.7264C12.9883 22.6106 12.9431 22.4934 12.9009 22.375C12.8583 22.2565 12.8191 22.1373 12.7825 22.0171C12.7463 21.897 12.7126 21.7756 12.682 21.6537C12.6517 21.5319 12.624 21.4092 12.5993 21.2861C12.575 21.163 12.5533 21.039 12.535 20.915C12.5167 20.7906 12.5013 20.6658 12.489 20.5406C12.4766 20.4157 12.4672 20.2905 12.4613 20.1648C12.4549 20.0396 12.4519 19.9139 12.4519 19.7882C12.4519 19.6626 12.4549 19.5369 12.4613 19.4112C12.4672 19.286 12.4766 19.1607 12.489 19.0355C12.5013 18.9106 12.5167 18.7858 12.535 18.6614C12.5533 18.537 12.575 18.4135 12.5993 18.2899C12.624 18.1668 12.6517 18.0441 12.682 17.9223C12.7126 17.8005 12.7463 17.6795 12.7825 17.5593C12.8191 17.4388 12.8583 17.3195 12.9009 17.2015C12.9431 17.0831 12.9883 16.9659 13.0364 16.8496C13.0845 16.7337 13.1352 16.6187 13.1893 16.505C13.243 16.3916 13.2992 16.2792 13.3585 16.1684C13.4177 16.0576 13.4799 15.9482 13.5442 15.8404C13.609 15.7326 13.6763 15.6265 13.7461 15.5222C13.816 15.4178 13.888 15.3151 13.963 15.2141C14.0379 15.1132 14.1151 15.0139 14.1947 14.9168C14.2748 14.8197 14.3566 14.7247 14.441 14.6314C14.5253 14.5385 14.6122 14.4473 14.7008 14.3587C14.7899 14.2697 14.8806 14.1832 14.9739 14.0988C15.0672 14.0141 15.1622 13.9323 15.2593 13.8526C15.3565 13.7729 15.4553 13.6954 15.5562 13.6204C15.6572 13.5459 15.7599 13.4735 15.8647 13.4036C15.9691 13.3337 16.0751 13.2664 16.1829 13.2021C16.2907 13.1373 16.4002 13.0756 16.5109 13.0164C16.6217 12.9571 16.7337 12.9005 16.8475 12.8468C16.9612 12.7931 17.0758 12.742 17.1921 12.6939C17.308 12.6461 17.4252 12.6006 17.5436 12.5584C17.662 12.5162 17.7813 12.4766 17.9014 12.4404C18.022 12.4037 18.143 12.3701 18.2648 12.3398C18.3867 12.3092 18.5094 12.2815 18.6325 12.2572C18.7556 12.2325 18.8796 12.2112 19.004 12.1924C19.1284 12.1741 19.2528 12.1588 19.378 12.1464C19.5028 12.1341 19.6281 12.1251 19.7537 12.1187C19.8794 12.1128 20.0047 12.1094 20.1303 12.1094C20.256 12.1094 20.3817 12.1128 20.5074 12.1187C20.6326 12.1251 20.7583 12.1341 20.8831 12.1464C21.0083 12.1588 21.1327 12.1741 21.2571 12.1924C21.3815 12.2112 21.5055 12.2325 21.6286 12.2572C21.7517 12.2815 21.8744 12.3092 21.9963 12.3398C22.1181 12.3701 22.2391 12.4037 22.3597 12.4404C22.4798 12.4766 22.5991 12.5162 22.7175 12.5584C22.8355 12.6006 22.9531 12.6461 23.069 12.6939C23.1853 12.742 23.2999 12.7931 23.4136 12.8468C23.5273 12.9005 23.6394 12.9571 23.7502 13.0164C23.8609 13.0756 23.9704 13.1373 24.0782 13.2021C24.186 13.2664 24.292 13.3337 24.3964 13.4036C24.5012 13.4735 24.6039 13.5459 24.7048 13.6204C24.8054 13.6954 24.9046 13.7729 25.0018 13.8526C25.0989 13.9323 25.1939 14.0141 25.2872 14.0988C25.3801 14.1832 25.4712 14.2697 25.5603 14.3587C25.6489 14.4473 25.7358 14.5385 25.8201 14.6314C25.9045 14.7247 25.9863 14.8197 26.066 14.9168C26.146 15.0139 26.2231 15.1132 26.2981 15.2141C26.3727 15.3151 26.4451 15.4178 26.515 15.5222C26.5848 15.6265 26.6521 15.7326 26.7165 15.8404C26.7812 15.9482 26.843 16.0576 26.9026 16.1684C26.9619 16.2792 27.0181 16.3916 27.0718 16.505C27.1254 16.6187 27.1766 16.7337 27.2247 16.8496C27.2728 16.9659 27.318 17.0831 27.3602 17.2015C27.4028 17.3195 27.442 17.4388 27.4786 17.5593C27.5148 17.6795 27.5485 17.8005 27.5791 17.9223C27.6094 18.0441 27.6371 18.1668 27.6618 18.2899C27.6861 18.4135 27.7074 18.537 27.7261 18.6614C27.7444 18.7858 27.7598 18.9106 27.7721 19.0355C27.7845 19.1607 27.7939 19.286 27.7998 19.4112C27.8062 19.5369 27.8092 19.6626 27.8092 19.7882Z" fill="#FF3CC7"/>
<mask id="mask1_916_8529" style="mask-type:luminance" maskUnits="userSpaceOnUse" x="8" y="8" width="24" height="23">
<path d="M8.94543 8.6123H31.409V30.9421H8.94543V8.6123Z" fill="white"/>
</mask>
<g mask="url(#mask1_916_8529)">
<path d="M20.1304 8.6123C13.9596 8.6123 8.95398 13.6175 8.95398 19.7887C8.95398 25.9599 13.9596 30.9651 20.1304 30.9651C26.3016 30.9651 31.3068 25.9599 31.3068 19.7887C31.3068 13.6175 26.3016 8.6123 20.1304 8.6123ZM20.1304 10.5975C21.8234 10.5975 23.1892 11.9684 23.1892 13.6563C23.1892 15.3446 21.8187 16.715 20.1304 16.715C18.4425 16.715 17.0716 15.3446 17.0716 13.6563C17.0716 11.9684 18.4378 10.5975 20.1304 10.5975ZM22.1258 19.4326C22.1258 19.6422 21.9601 19.8083 21.7501 19.8083C21.5405 19.8083 21.3748 19.6422 21.3748 19.4326C21.3748 19.2225 21.5405 19.0568 21.7501 19.0568C21.9601 19.0568 22.1258 19.2225 22.1258 19.4326ZM20.5061 17.8082C20.5061 18.0178 20.3404 18.1835 20.1304 18.1835C19.9208 18.1835 19.7551 18.0178 19.7551 17.8082C19.7551 17.5982 19.9208 17.4324 20.1304 17.4324C20.3353 17.4324 20.5061 17.6033 20.5061 17.8082ZM18.8817 19.4326C18.8817 19.6422 18.716 19.8083 18.506 19.8083C18.2964 19.8083 18.1303 19.6422 18.1303 19.4326C18.1303 19.2225 18.2964 19.0568 18.506 19.0568C18.716 19.0568 18.8817 19.2225 18.8817 19.4326ZM11.2617 18.0664C11.2617 16.3785 12.6326 15.0076 14.3204 15.0076C16.0083 15.0076 17.3792 16.3785 17.3792 18.0664C17.3792 19.7546 16.0083 21.1251 14.3204 21.1251C12.6326 21.1251 11.2617 19.7593 11.2617 18.0664ZM16.4522 27.7649C14.7643 27.7649 13.3934 26.394 13.3934 24.7062C13.3934 23.0183 14.7643 21.6474 16.4522 21.6474C18.1452 21.6474 19.511 23.0183 19.511 24.7062C19.511 26.394 18.1401 27.7649 16.4522 27.7649ZM19.2767 19.4326C19.2767 18.9593 19.6575 18.5788 20.1304 18.5788C20.6037 18.5788 20.9841 18.9593 20.9841 19.4326C20.9841 19.9059 20.6037 20.2863 20.1304 20.2863C19.6575 20.2863 19.2767 19.9008 19.2767 19.4326ZM20.1304 21.4276C19.9208 21.4276 19.7551 21.2619 19.7551 21.0523C19.7551 20.8422 19.9208 20.6765 20.1304 20.6765C20.3404 20.6765 20.5061 20.8422 20.5061 21.0523C20.5061 21.2619 20.3353 21.4276 20.1304 21.4276ZM23.7502 27.7649C22.0624 27.7649 20.6914 26.394 20.6914 24.7062C20.6914 23.0183 22.0624 21.6474 23.7502 21.6474C25.4432 21.6474 26.809 23.0183 26.809 24.7062C26.8141 26.394 25.4432 27.7649 23.7502 27.7649ZM25.9361 21.1302C24.2478 21.1302 22.8773 19.7593 22.8773 18.0715C22.8773 16.3836 24.2478 15.0076 25.9361 15.0076C27.6286 15.0076 28.9948 16.3785 28.9948 18.0664C28.9948 19.7546 27.6286 21.1302 25.9361 21.1302Z" fill="#4C1A57"/>
</g>
<path d="M20.2036 30.0772C14.5299 30.0772 9.91028 25.4623 9.91028 19.7835C9.91028 14.1099 14.5253 9.49023 20.2036 9.49023C25.8772 9.49023 30.4973 14.1052 30.4973 19.7835C30.4922 25.4623 25.8772 30.0772 20.2036 30.0772ZM20.2036 9.98313C14.7983 9.98313 10.3981 14.3834 10.3981 19.7886C10.3981 25.1939 14.7983 29.5941 20.2036 29.5941C25.6088 29.5941 30.0091 25.1939 30.0091 19.7886C30.0044 14.3834 25.6088 9.98313 20.2036 9.98313Z" fill="#00E5E8"/>
<path d="M1.17409 16.7115L2.10791 16.9007L2.48962 15.0245L3.42002 15.2137L3.03832 17.0898L4.49357 17.3863L4.24989 18.5877L0.00170898 17.7237L0.678215 14.3906L1.60692 14.5798L1.17409 16.7115Z" fill="#dfdfdf"/>
<path d="M1.33362 12.7419L1.82268 11.6172L5.79822 13.3434L5.30916 14.4681L1.33362 12.7419Z" fill="#dfdfdf"/>
<path d="M2.75232 9.78323L3.4595 8.78125L6.20812 10.7153L7.39755 9.02322L8.19334 9.58386L6.29673 12.278L2.75232 9.78323Z" fill="#dfdfdf"/>
<path d="M11.6611 6.7163L10.2655 4.88956L10.5041 7.0554L10.0695 7.38428L8.09454 6.60724L9.44244 8.39137L8.53759 9.0764L5.92358 5.61719L6.7296 5.00714L9.45266 6.0858L9.1323 3.19233L9.93661 2.58398L12.5591 6.03638L11.6611 6.7163Z" fill="#dfdfdf"/>
<path d="M16.307 0.22168L15.8588 4.91633L14.7086 5.2844L11.6226 1.72124L12.8853 1.31738L14.8688 3.64681L15.1516 0.591458L16.307 0.22168Z" fill="#dfdfdf"/>
<path d="M17.9165 0.121545L19.14 0.0244141L19.4808 4.34587L18.2573 4.44301L17.9165 0.121545Z" fill="#dfdfdf"/>
<path d="M22.1435 4.56224C21.7959 4.51665 21.4636 4.42932 21.1466 4.29981C20.8305 4.17031 20.5796 4.02035 20.3934 3.84995L20.9115 3.00644C21.0874 3.15896 21.297 3.29059 21.5403 3.40178C21.7844 3.51212 22.0293 3.58369 22.2747 3.61649C22.7425 3.67784 22.9921 3.59221 23.0228 3.35918C23.0385 3.23649 22.9836 3.1368 22.8575 3.05927C22.7322 2.98216 22.5269 2.89142 22.2406 2.78662C21.9258 2.67416 21.6651 2.56424 21.4585 2.45604C21.2527 2.34826 21.0836 2.19617 20.9507 1.99935C20.8186 1.80296 20.7722 1.55545 20.8109 1.25639C20.8459 0.993966 20.949 0.766902 21.1194 0.574771C21.2906 0.383066 21.5266 0.244186 21.8265 0.158984C22.1273 0.0737813 22.4847 0.0584449 22.8984 0.112974C23.1813 0.150463 23.4556 0.218625 23.7214 0.31746C23.9873 0.416295 24.216 0.541542 24.4082 0.69235L23.914 1.54778C23.5344 1.27087 23.1523 1.10643 22.7672 1.05531C22.526 1.02379 22.3454 1.03657 22.2253 1.0945C22.1047 1.15244 22.037 1.23892 22.0225 1.35352C22.0076 1.46854 22.0617 1.56312 22.1844 1.6381C22.3079 1.71222 22.5116 1.79828 22.7944 1.89711C23.1122 2.01086 23.3738 2.12204 23.5783 2.2311C23.7836 2.33931 23.9536 2.49012 24.0878 2.68438C24.2216 2.87864 24.2693 3.1253 24.2309 3.42394C24.1969 3.6821 24.0938 3.90575 23.9225 4.09533C23.7521 4.2849 23.5152 4.42336 23.2119 4.51112C22.9086 4.59973 22.5525 4.61677 22.1435 4.56224Z" fill="#dfdfdf"/>
<path d="M27.7526 5.3149L26.0776 4.57023L25.4232 5.20073L24.2798 4.69122L27.7901 1.50977L28.8943 2.00053L28.8875 6.74119L27.7203 6.22316L27.7526 5.3149ZM27.7918 4.34359L27.8464 2.84915L26.7728 3.89032L27.7918 4.34359Z" fill="#dfdfdf"/>
<path d="M31.4187 7.47553L30.9177 7.03248L30.156 7.89643L29.2358 7.0853L32.102 3.83398L33.5897 5.1461C33.8828 5.40511 34.0945 5.67904 34.2253 5.96745C34.3569 6.25501 34.4017 6.54129 34.3599 6.82629C34.3177 7.11129 34.1886 7.3767 33.9731 7.62208C33.766 7.85724 33.5305 8.01316 33.2659 8.09069C33.0022 8.16908 32.7244 8.1678 32.4326 8.08728L32.2333 9.72828L31.2466 8.85922L31.4187 7.47553ZM33.0444 6.80243C33.1781 6.65035 33.234 6.49017 33.2114 6.32189C33.1884 6.15404 33.0827 5.98705 32.8944 5.8209L32.3832 5.36933L31.5448 6.32189L32.056 6.77346C32.2443 6.93918 32.4228 7.02311 32.5911 7.02566C32.759 7.02779 32.9102 6.95324 33.0444 6.80243Z" fill="#dfdfdf"/>
<path d="M38.5213 11.5847L34.8048 13.817L34.285 12.9531L35.2785 10.1227L33.2984 11.3121L32.6798 10.2811L36.3963 8.04883L36.9161 8.91448L35.9209 11.7449L37.901 10.5555L38.5213 11.5847Z" fill="#dfdfdf"/>
<path d="M36.6288 17.3659L36.2199 15.58L35.3235 15.4369L35.0441 14.2168L39.6961 15.1131L39.9671 16.2906L36.1721 19.1313L35.8859 17.8873L36.6288 17.3659ZM37.4314 16.8155L38.6583 15.96L37.1826 15.7283L37.4314 16.8155Z" fill="#dfdfdf"/>
</g>
<defs>
<clipPath id="clip0_916_8529">
<rect width="39.9974" height="31" fill="white"/>
</clipPath>
</defs>
</svg>
