<svg xmlns="http://www.w3.org/2000/svg" xmlns:xlink="http://www.w3.org/1999/xlink" width="500" zoomAndPan="magnify" viewBox="0 0 375 374.999991" height="500" preserveAspectRatio="xMidYMid meet" version="1.0"><defs><clipPath id="116b485a0c"><path d="M 79.175781 79.175781 L 295.925781 79.175781 L 295.925781 295.925781 L 79.175781 295.925781 Z M 79.175781 79.175781 " clip-rule="nonzero"/></clipPath><clipPath id="4ea9f1a468"><path d="M 79.175781 103.175781 L 79.175781 271.824219 C 79.175781 285.078125 89.921875 295.824219 103.175781 295.824219 L 271.824219 295.824219 C 285.078125 295.824219 295.824219 285.078125 295.824219 271.824219 L 295.824219 103.175781 C 295.824219 89.921875 285.078125 79.175781 271.824219 79.175781 L 103.175781 79.175781 C 89.921875 79.175781 79.175781 89.921875 79.175781 103.175781 Z M 79.175781 103.175781 " clip-rule="nonzero"/></clipPath></defs><path fill="#1dc9cb" d="M 365.15625 187.488281 C 365.15625 286.128906 285.207031 366.074219 186.574219 366.074219 C 87.945312 366.074219 7.992188 286.128906 7.992188 187.488281 C 7.992188 88.847656 87.945312 8.90625 186.585938 8.90625 C 285.226562 8.90625 365.15625 88.863281 365.15625 187.488281 Z M 365.15625 187.488281 " fill-opacity="1" fill-rule="nonzero"/><path fill="#ff3cc7" d="M 312.859375 313.785156 C 243.109375 383.515625 130.039062 383.515625 60.300781 313.785156 C -9.441406 244.054688 115.019531 284.082031 206.425781 247.023438 C 416.1875 161.960938 243.109375 -8.53125 312.859375 61.214844 C 382.609375 130.960938 382.609375 244.035156 312.859375 313.785156 Z M 312.859375 313.785156 " fill-opacity="1" fill-rule="nonzero"/><g clip-path="url(#116b485a0c)"><g clip-path="url(#4ea9f1a468)"><path fill="#ffffff" d="M 292.3125 295.804688 L 82.703125 295.804688 C 80.804688 295.804688 79.269531 294.265625 79.269531 292.367188 L 79.269531 272.789062 C 79.269531 240.210938 105.769531 213.707031 138.347656 213.707031 L 236.664062 213.707031 C 269.242188 213.707031 295.746094 240.210938 295.746094 272.789062 L 295.746094 292.367188 C 295.746094 294.265625 294.207031 295.804688 292.3125 295.804688 Z M 187.507812 204.46875 C 152.964844 204.46875 124.859375 176.367188 124.859375 141.824219 C 124.859375 107.28125 152.964844 79.175781 187.507812 79.175781 C 222.050781 79.175781 250.152344 107.28125 250.152344 141.824219 C 250.152344 176.367188 222.050781 204.46875 187.507812 204.46875 Z M 187.507812 204.46875 " fill-opacity="1" fill-rule="nonzero"/></g></g></svg>