<svg width="28" height="25" viewBox="0 0 28 25" fill="none" xmlns="http://www.w3.org/2000/svg">
<mask id="mask0_916_8458" style="mask-type:luminance" maskUnits="userSpaceOnUse" x="22" y="19" width="6" height="6">
<path d="M22.7462 19.6475H27.766V24.5136H22.7462V19.6475Z" fill="white"/>
</mask>
<g mask="url(#mask0_916_8458)">
<path d="M23.504 19.6934C23.504 19.6934 24.353 21.7011 25.7944 21.6413C27.2363 21.5762 27.7969 21.0591 27.7969 21.0591L27.356 24.4003C27.356 24.4003 23.0636 24.5201 22.7695 20.6348C22.7154 19.8948 23.504 19.6934 23.504 19.6934Z" fill="#FF3CC7"/>
</g>
<path d="M21.894 12.4934C21.894 12.6336 21.8907 12.7738 21.8836 12.9135C21.8769 13.0537 21.8665 13.1934 21.8527 13.3327C21.8389 13.4724 21.8218 13.6116 21.8014 13.7504C21.7805 13.8887 21.7567 14.027 21.7296 14.1643C21.7021 14.3016 21.6712 14.4385 21.6375 14.5744C21.6033 14.7103 21.5657 14.8458 21.5254 14.9798C21.4845 15.1138 21.4408 15.2468 21.3933 15.3789C21.3462 15.511 21.2959 15.6417 21.2422 15.771C21.1885 15.9007 21.1315 16.029 21.0716 16.1554C21.0118 16.2823 20.9491 16.4073 20.883 16.5309C20.8165 16.6549 20.7476 16.7765 20.6754 16.8968C20.6037 17.017 20.5286 17.1353 20.4507 17.2522C20.3728 17.3687 20.292 17.4832 20.2089 17.5958C20.1253 17.7084 20.0393 17.8187 19.95 17.927C19.8611 18.0354 19.7699 18.1418 19.6759 18.2454C19.5818 18.3495 19.4849 18.4507 19.386 18.55C19.2868 18.6494 19.1851 18.7458 19.0815 18.8399C18.9775 18.934 18.8715 19.0257 18.7632 19.1146C18.6549 19.2035 18.5442 19.2895 18.4321 19.3731C18.3195 19.4567 18.205 19.5375 18.0881 19.6155C17.9717 19.6929 17.8534 19.768 17.7332 19.8402C17.613 19.912 17.4909 19.9814 17.3674 20.0474C17.2439 20.1135 17.1189 20.1767 16.9921 20.2366C16.8653 20.2964 16.7375 20.353 16.6078 20.4067C16.4785 20.4604 16.3474 20.5108 16.2158 20.5583C16.0837 20.6053 15.9507 20.6491 15.8167 20.6899C15.6823 20.7308 15.5474 20.7679 15.4115 20.8021C15.2756 20.8363 15.1388 20.8667 15.0015 20.8943C14.8642 20.9213 14.7259 20.9456 14.5872 20.966C14.4485 20.9865 14.3098 21.0036 14.1701 21.0173C14.0309 21.0311 13.8907 21.0416 13.7511 21.0482C13.6109 21.0554 13.4708 21.0587 13.3306 21.0587C13.1905 21.0587 13.0508 21.0554 12.9106 21.0482C12.7705 21.0416 12.6308 21.0311 12.4916 21.0173C12.3519 21.0036 12.2132 20.9865 12.0745 20.966C11.9358 20.9456 11.7975 20.9213 11.6602 20.8943C11.5229 20.8667 11.3861 20.8363 11.2502 20.8021C11.1144 20.7679 10.9794 20.7308 10.845 20.6899C10.711 20.6491 10.578 20.6053 10.4459 20.5583C10.3138 20.5108 10.1832 20.4604 10.054 20.4067C9.92427 20.353 9.79647 20.2964 9.66962 20.2366C9.54277 20.1767 9.41783 20.1135 9.2943 20.0474C9.17078 19.9814 9.04869 19.912 8.92849 19.8402C8.80829 19.768 8.69 19.6929 8.5736 19.6155C8.45673 19.5375 8.34224 19.4567 8.22964 19.3731C8.11705 19.2895 8.00683 19.2035 7.89851 19.1146C7.79019 19.0257 7.68424 18.934 7.5802 18.8399C7.47616 18.7458 7.37496 18.6494 7.27567 18.55C7.17685 18.4507 7.07994 18.3495 6.98587 18.2454C6.8918 18.1418 6.80059 18.0354 6.71127 17.927C6.62243 17.8187 6.53644 17.7084 6.45282 17.5958C6.36921 17.4832 6.28892 17.3687 6.21101 17.2522C6.13309 17.1353 6.05803 17.017 5.98582 16.8968C5.91408 16.7765 5.84472 16.6549 5.77868 16.5309C5.71264 16.4073 5.64993 16.2823 5.59007 16.1554C5.52974 16.029 5.4732 15.9007 5.41952 15.771C5.36583 15.6417 5.31547 15.511 5.26844 15.3789C5.22093 15.2468 5.17722 15.1138 5.13637 14.9798C5.09598 14.8458 5.05845 14.7103 5.02425 14.5744C4.99051 14.4385 4.95963 14.3016 4.93208 14.1643C4.905 14.027 4.88077 13.8887 4.86034 13.7504C4.83991 13.6116 4.82281 13.4724 4.80903 13.3327C4.79526 13.1934 4.7848 13.0537 4.77815 12.9135C4.77103 12.7738 4.7677 12.6336 4.7677 12.4934C4.7677 12.3533 4.77103 12.2131 4.77815 12.0729C4.7848 11.9332 4.79526 11.7935 4.80903 11.6537C4.82281 11.5145 4.83991 11.3753 4.86034 11.2365C4.88077 11.0977 4.905 10.9599 4.93208 10.8221C4.95963 10.6848 4.99051 10.5479 5.02425 10.412C5.05845 10.2761 5.09598 10.1411 5.13637 10.0071C5.17722 9.87265 5.22093 9.73959 5.26844 9.60795C5.31547 9.47585 5.36583 9.34516 5.41952 9.21543C5.4732 9.08617 5.52974 8.95786 5.59007 8.83098C5.64993 8.70457 5.71264 8.57912 5.77868 8.45556C5.84472 8.33201 5.91408 8.20988 5.98582 8.08965C6.05803 7.96942 6.13309 7.85109 6.21101 7.73467C6.28892 7.61824 6.36921 7.50371 6.45282 7.39109C6.53644 7.27846 6.62243 7.16774 6.71127 7.05939C6.80059 6.95104 6.8918 6.84507 6.98587 6.74099C7.07994 6.6374 7.17685 6.5357 7.27567 6.43686C7.37496 6.33754 7.47616 6.24107 7.5802 6.14698C7.68424 6.05241 7.79019 5.96117 7.89851 5.87231C8.00683 5.78344 8.11705 5.69695 8.22964 5.61331C8.34224 5.53015 8.45673 5.44937 8.5736 5.37143C8.69 5.2935 8.80829 5.21841 8.92849 5.14666C9.04869 5.07442 9.17078 5.00552 9.2943 4.93946C9.41783 4.87341 9.54277 4.8102 9.66962 4.75033C9.79647 4.69045 9.92427 4.63343 10.054 4.57973C10.1832 4.5265 10.3138 4.47565 10.4459 4.42861C10.578 4.38156 10.711 4.33737 10.845 4.29697C10.9794 4.25611 11.1144 4.21856 11.2502 4.18482C11.3861 4.15061 11.5229 4.11972 11.6602 4.09263C11.7975 4.06507 11.9358 4.04131 12.0745 4.0204C12.2132 3.99997 12.3519 3.98286 12.4916 3.96908C12.6308 3.9553 12.7705 3.94532 12.9106 3.93819C13.0508 3.93154 13.1905 3.92773 13.3306 3.92773C13.4708 3.92773 13.6109 3.93154 13.7511 3.93819C13.8907 3.94532 14.0309 3.9553 14.1701 3.96908C14.3098 3.98286 14.4485 3.99997 14.5872 4.0204C14.7259 4.04131 14.8642 4.06507 15.0015 4.09263C15.1388 4.11972 15.2756 4.15061 15.4115 4.18482C15.5474 4.21856 15.6823 4.25611 15.8167 4.29697C15.9507 4.33737 16.0837 4.38156 16.2158 4.42861C16.3474 4.47565 16.4785 4.5265 16.6078 4.57973C16.7375 4.63343 16.8653 4.69045 16.9921 4.75033C17.1189 4.8102 17.2439 4.87341 17.3674 4.93946C17.4909 5.00552 17.613 5.07442 17.7332 5.14666C17.8534 5.21841 17.9717 5.2935 18.0881 5.37143C18.205 5.44937 18.3195 5.53015 18.4321 5.61331C18.5442 5.69695 18.6549 5.78344 18.7632 5.87231C18.8715 5.96117 18.9775 6.05241 19.0815 6.14698C19.1851 6.24107 19.2868 6.33754 19.386 6.43686C19.4849 6.5357 19.5818 6.6374 19.6759 6.74099C19.7699 6.84507 19.8611 6.95104 19.95 7.05939C20.0393 7.16774 20.1253 7.27846 20.2089 7.39109C20.292 7.50371 20.3728 7.61824 20.4507 7.73467C20.5286 7.85109 20.6037 7.96942 20.6754 8.08965C20.7476 8.20988 20.8165 8.33201 20.883 8.45556C20.9491 8.57912 21.0118 8.70457 21.0716 8.83098C21.1315 8.95786 21.1885 9.08617 21.2422 9.21543C21.2959 9.34516 21.3462 9.47585 21.3933 9.60795C21.4408 9.73959 21.4845 9.87265 21.5254 10.0071C21.5657 10.1411 21.6033 10.2761 21.6375 10.412C21.6712 10.5479 21.7021 10.6848 21.7296 10.8221C21.7567 10.9599 21.7805 11.0977 21.8014 11.2365C21.8218 11.3753 21.8389 11.5145 21.8527 11.6537C21.8665 11.7935 21.8769 11.9332 21.8836 12.0729C21.8907 12.2131 21.894 12.3533 21.894 12.4934Z" fill="#FF3CC7"/>
<mask id="mask1_916_8458" style="mask-type:luminance" maskUnits="userSpaceOnUse" x="0" y="0" width="26" height="25">
<path d="M0.857178 0.0263672H25.9084V24.9351H0.857178V0.0263672Z" fill="white"/>
</mask>
<g mask="url(#mask1_916_8458)">
<path d="M13.3305 0.0263672C6.44894 0.0263672 0.866699 5.60964 0.866699 12.4936C0.866699 19.3775 6.44894 24.9608 13.3305 24.9608C20.2126 24.9608 25.7944 19.3775 25.7944 12.4936C25.7944 5.60964 20.2126 0.0263672 13.3305 0.0263672ZM13.3305 2.24086C15.2185 2.24086 16.7416 3.77009 16.7416 5.65289C16.7416 7.53616 15.2133 9.06492 13.3305 9.06492C11.4483 9.06492 9.91943 7.53616 9.91943 5.65289C9.91943 3.77009 11.443 2.24086 13.3305 2.24086ZM15.5558 12.0963C15.5558 12.3301 15.371 12.5154 15.1368 12.5154C14.9031 12.5154 14.7183 12.3301 14.7183 12.0963C14.7183 11.862 14.9031 11.6772 15.1368 11.6772C15.371 11.6772 15.5558 11.862 15.5558 12.0963ZM13.7496 10.2843C13.7496 10.5181 13.5648 10.703 13.3305 10.703C13.0968 10.703 12.912 10.5181 12.912 10.2843C12.912 10.05 13.0968 9.86517 13.3305 9.86517C13.5591 9.86517 13.7496 10.0557 13.7496 10.2843ZM11.9381 12.0963C11.9381 12.3301 11.7533 12.5154 11.519 12.5154C11.2853 12.5154 11.1 12.3301 11.1 12.0963C11.1 11.862 11.2853 11.6772 11.519 11.6772C11.7533 11.6772 11.9381 11.862 11.9381 12.0963ZM3.44023 10.5723C3.44023 8.6895 4.96905 7.16026 6.85134 7.16026C8.73362 7.16026 10.2624 8.6895 10.2624 10.5723C10.2624 12.4556 8.73362 13.9843 6.85134 13.9843C4.96905 13.9843 3.44023 12.4608 3.44023 10.5723ZM9.22866 21.391C7.34638 21.391 5.81755 19.8618 5.81755 17.979C5.81755 16.0962 7.34638 14.5669 9.22866 14.5669C11.1166 14.5669 12.6398 16.0962 12.6398 17.979C12.6398 19.8618 11.1109 21.391 9.22866 21.391ZM12.3785 12.0963C12.3785 11.5683 12.8032 11.144 13.3305 11.144C13.8584 11.144 14.2826 11.5683 14.2826 12.0963C14.2826 12.6243 13.8584 13.0486 13.3305 13.0486C12.8032 13.0486 12.3785 12.6186 12.3785 12.0963ZM13.3305 14.3217C13.0968 14.3217 12.912 14.1369 12.912 13.9031C12.912 13.6688 13.0968 13.4839 13.3305 13.4839C13.5648 13.4839 13.7496 13.6688 13.7496 13.9031C13.7496 14.1369 13.5591 14.3217 13.3305 14.3217ZM17.3673 21.391C15.485 21.391 13.9562 19.8618 13.9562 17.979C13.9562 16.0962 15.485 14.5669 17.3673 14.5669C19.2553 14.5669 20.7784 16.0962 20.7784 17.979C20.7841 19.8618 19.2553 21.391 17.3673 21.391ZM19.805 13.99C17.9222 13.99 16.3939 12.4608 16.3939 10.578C16.3939 8.6952 17.9222 7.16026 19.805 7.16026C21.6925 7.16026 23.2161 8.6895 23.2161 10.5723C23.2161 12.4556 21.6925 13.99 19.805 13.99Z" fill="#4C1A57"/>
</g>
<path d="M13.4123 23.9705C7.08517 23.9705 1.93335 18.8225 1.93335 12.488C1.93335 6.15907 7.07994 1.00586 13.4123 1.00586C19.7395 1.00586 24.8918 6.15384 24.8918 12.488C24.8861 18.8225 19.7395 23.9705 13.4123 23.9705ZM13.4123 1.55568C7.38447 1.55568 2.47732 6.46416 2.47732 12.4937C2.47732 18.5232 7.38447 23.4316 13.4123 23.4316C19.4402 23.4316 24.3474 18.5232 24.3474 12.4937C24.3421 6.46416 19.4402 1.55568 13.4123 1.55568Z" fill="#00E5E8"/>
</svg>
